<?xml version="1.0" encoding="UTF-8" standalone="no"?>
<!-- Created with Inkscape (http://www.inkscape.org/) -->
<svg xmlns:rdf="http://www.w3.org/1999/02/22-rdf-syntax-ns#" xmlns="http://www.w3.org/2000/svg" xmlns:cc="http://web.resource.org/cc/" xmlns:dc="http://purl.org/dc/elements/1.1/" xmlns:svg="http://www.w3.org/2000/svg" xmlns:inkscape="http://www.inkscape.org/namespaces/inkscape" xmlns:sodipodi="http://sodipodi.sourceforge.net/DTD/sodipodi-0.dtd" xmlns:ns1="http://sozi.baierouge.fr" xmlns:xlink="http://www.w3.org/1999/xlink" id="svg2433" viewBox="0 0 77.723 174.73" version="1.0" inkscape:version="0.91 r13725">
  <g id="layer1" transform="translate(-445.93 -393.72)">
    <path id="path2396" style="fill:#000000" d="m484.82 393.73c-3.93 0.17-6.82 4.38-4.61 8.35 0.69 1.25 0.58 1.52-1.39 3.5-9.06 9.06-11.87 38.08-5.35 55.39l1.34 3.59h-3.29c-5.56 0-8.26 3.48-4.81 6.2 1.16 0.91 2.31 1.17 5.11 1.17 1.98 0 3.6 0.19 3.58 0.43-0.02 0.23-4.92 18.42-10.92 40.41l-10.93 39.99-1.68 0.35c-4.73 0.98-5.94 3.05-5.94 10.16v5.13h3.38v0.05h37.17 37.17v-5.12c0-7.11-1.23-9.21-5.96-10.18l-0.99-0.2c-1.42-3.2-4.19-12.55-12.09-40.21-6.37-22.28-11.58-40.57-11.58-40.65s2.14-0.16 4.75-0.16c3.94 0 5-0.19 6.24-1.17 1.93-1.52 1.93-3.5 0-5.02-1.2-0.94-2.31-1.18-5.66-1.18h-4.15l1.35-3.59c3.02-8 4.37-21.37 3.18-31.58-0.38-3.27-0.88-6.26-1.09-6.63-0.21-0.39-2.18 2.6-4.59 6.95-2.32 4.19-4.37 7.61-4.57 7.61s-0.92-1-1.62-2.24l-1.27-2.25 5.16-8.81 5.16-8.82-1.74-3.67c-0.96-2.01-2.58-4.54-3.58-5.6-1.82-1.92-1.82-1.96-0.84-3.58 1.78-2.93 0.78-6.72-2.11-8.03-0.96-0.45-1.93-0.63-2.83-0.59z"/>
  </g>
  <metadata>
    <rdf:RDF>
      <cc:Work>
        <dc:format>image/svg+xml</dc:format>
        <dc:type rdf:resource="http://purl.org/dc/dcmitype/StillImage"/>
        <cc:license rdf:resource="http://creativecommons.org/licenses/publicdomain/"/>
        <dc:publisher>
          <cc:Agent rdf:about="http://openclipart.org/">
            <dc:title>Openclipart</dc:title>
          </cc:Agent>
        </dc:publisher>
        <dc:title>2D Chess set - Bishop 1</dc:title>
        <dc:date>2006-12-26T00:00:00</dc:date>
        <dc:description/>
        <dc:source>https://openclipart.org/detail/18551/-by--18551</dc:source>
        <dc:creator>
          <cc:Agent>
            <dc:title>portablejim</dc:title>
          </cc:Agent>
        </dc:creator>
      </cc:Work>
      <cc:License rdf:about="http://creativecommons.org/licenses/publicdomain/">
        <cc:permits rdf:resource="http://creativecommons.org/ns#Reproduction"/>
        <cc:permits rdf:resource="http://creativecommons.org/ns#Distribution"/>
        <cc:permits rdf:resource="http://creativecommons.org/ns#DerivativeWorks"/>
      </cc:License>
    </rdf:RDF>
  </metadata>
</svg>
